<mxfile host="65bd71144e">
    <diagram id="ry-Xdnobw6atnsVnIAXO" name="Page-1">
        <mxGraphModel dx="1263" dy="523" grid="1" gridSize="10" guides="1" tooltips="1" connect="1" arrows="1" fold="1" page="1" pageScale="1" pageWidth="827" pageHeight="1169" math="0" shadow="0">
            <root>
                <mxCell id="0"/>
                <mxCell id="1" parent="0"/>
                <mxCell id="2" value="«interface»&lt;br&gt;&lt;b&gt;command_entry&lt;/b&gt;" style="html=1;" vertex="1" parent="1">
                    <mxGeometry x="350" y="130" width="110" height="50" as="geometry"/>
                </mxCell>
                <mxCell id="3" value="cmd-echo-object" style="html=1;" vertex="1" parent="1">
                    <mxGeometry x="110" y="260" width="110" height="50" as="geometry"/>
                </mxCell>
                <mxCell id="4" value="" style="endArrow=block;dashed=1;endFill=0;endSize=12;html=1;entryX=0.5;entryY=1;entryDx=0;entryDy=0;exitX=0.5;exitY=0;exitDx=0;exitDy=0;" edge="1" parent="1" source="3" target="2">
                    <mxGeometry width="160" relative="1" as="geometry">
                        <mxPoint x="280" y="270" as="sourcePoint"/>
                        <mxPoint x="440" y="270" as="targetPoint"/>
                    </mxGeometry>
                </mxCell>
                <mxCell id="5" value="«interface»&lt;br&gt;&lt;b&gt;stdout&lt;/b&gt;" style="html=1;" vertex="1" parent="1">
                    <mxGeometry x="560" y="30" width="110" height="50" as="geometry"/>
                </mxCell>
                <mxCell id="6" value="Use" style="endArrow=open;endSize=12;dashed=1;html=1;entryX=0.5;entryY=1;entryDx=0;entryDy=0;exitX=0.5;exitY=0;exitDx=0;exitDy=0;" edge="1" parent="1" source="2" target="5">
                    <mxGeometry width="160" relative="1" as="geometry">
                        <mxPoint x="510" y="150" as="sourcePoint"/>
                        <mxPoint x="670" y="150" as="targetPoint"/>
                    </mxGeometry>
                </mxCell>
            </root>
        </mxGraphModel>
    </diagram>
</mxfile>